<svg xmlns="http://www.w3.org/2000/svg" width="1247" height="459"><defs><style>.\31 9cfeff9-a8f3-4ba9-a022-0a978a81f76e{fill:#00b4a2;}.dfa28a5b-8911-4e1b-a1d7-097094ce7e3c{fill:#78c240;}</style></defs><title>AES_logo</title><path d="M127.7 382.38c-42 1.76-80.9 13.9-81.2 14l-2.22 1-3.1-205.56c-14.6 6.1-23.4 10.9-23.4 10.9l-2.06 241.34c143.35-47.06 223.3-13.87 251.56 3-.84-2.5-6.1-8.58-8.28-11.76-48-48.75-92.92-54.53-131.3-52.92z" class="19cfeff9-a8f3-4ba9-a022-0a978a81f76e"/><path d="M621.76 412q.24 13-6.76 22.34a24.47 24.47 0 0 1-13 8.9 35.48 35.48 0 0 1-10.5 1.4q-11.08 0-18.38-5.5a30.7 30.7 0 0 1-9.64-12.25 49.3 49.3 0 0 1-4.15-17.74l18-1.3q1.2 10.95 5.8 15.87a9.65 9.65 0 0 0 7.8 3.52q6.18-.2 9.88-6.1 1.9-2.9 1.9-8.3 0-7.8-7.1-15.5l-16.78-15.9q-9.4-9.1-13.3-16.3a37.73 37.73 0 0 1-4.18-17.6q0-17.1 11.5-25.9 7.08-5.3 17.58-5.3 10.1 0 17.3 4.5a26 26 0 0 1 9 9.78 36.28 36.28 0 0 1 4.14 14.5l-18.08 3.3q-.8-7.7-4.4-12-2.6-3.1-7.5-3.1a8.64 8.64 0 0 0-7.9 4.6 17.75 17.75 0 0 0-2.2 9.18q0 8.6 7.4 17.5a62.57 62.57 0 0 0 8.4 8q6.6 5.5 8.7 7.7a64.17 64.17 0 0 1 10.78 13.78A53.33 53.33 0 0 1 619 400a34.35 34.35 0 0 1 2.76 12zM667.13 444.73a29.85 29.85 0 0 1-30-29.88V346.5a29.93 29.93 0 1 1 59.86 0v14.3H677.4v-14.7a10.9 10.9 0 0 0-10.9-10.9 10.33 10.33 0 0 0-7.64 3.2 10.58 10.58 0 0 0-3.15 7.7v68.55a10.74 10.74 0 0 0 10.8 10.8 10.58 10.58 0 0 0 7.68-3.16 10.33 10.33 0 0 0 3.2-7.65v-17.28H697v17.5a29.85 29.85 0 0 1-29.88 29.87zM731.38 390.07v53.06h-18.9v-125.2h18.9v53.15h22.78v-53.16h18.9v125.2h-18.9v-53.05zM819.6 316.32a29.94 29.94 0 0 1 30 30v68.35a29.93 29.93 0 1 1-59.85 0V346.3a29.94 29.94 0 0 1 29.88-30zm10.3 29.58a10.75 10.75 0 0 0-10.8-10.8 10.57 10.57 0 0 0-7.68 3.16 10.32 10.32 0 0 0-3.2 7.64v68.55a10.32 10.32 0 0 0 3.2 7.65 10.57 10.57 0 0 0 7.7 3.15 10.75 10.75 0 0 0 10.78-10.8zM895.76 316.32a29.93 29.93 0 0 1 30 30v68.35a29.93 29.93 0 1 1-59.86 0V346.3a29.94 29.94 0 0 1 29.88-30zm10.3 29.58a10.75 10.75 0 0 0-10.8-10.8 10.57 10.57 0 0 0-7.7 3.16 10.32 10.32 0 0 0-3.2 7.64v68.55a10.32 10.32 0 0 0 3.2 7.65 10.57 10.57 0 0 0 7.7 3.15 10.74 10.74 0 0 0 10.8-10.8zM993.9 443.13H942.4v-125.2h18.9v106.42h32.57zM1066.93 412q.2 13.1-6.8 22.4a24.47 24.47 0 0 1-13 8.88 35.48 35.48 0 0 1-10.48 1.4q-11.1 0-18.4-5.5a30.7 30.7 0 0 1-9.63-12.24 49.3 49.3 0 0 1-4.15-17.73l18-1.3q1.2 10.96 5.8 15.88a9.65 9.65 0 0 0 7.8 3.52q6.18-.2 9.88-6.1 1.9-2.9 1.9-8.3 0-7.8-7.1-15.5L1024 381.44q-9.4-9.1-13.3-16.3a37.73 37.73 0 0 1-4.18-17.6q0-17.1 11.5-25.9 7.08-5.3 17.58-5.3 10.1 0 17.3 4.5a26 26 0 0 1 9 9.78 36.28 36.28 0 0 1 4.14 14.5l-18.1 3.3q-.8-7.7-4.4-12-2.6-3.1-7.48-3.1a8.64 8.64 0 0 0-7.9 4.6 17.75 17.75 0 0 0-2.2 9.18q0 8.6 7.4 17.5a62.57 62.57 0 0 0 8.4 8q6.6 5.5 8.68 7.68a64.17 64.17 0 0 1 10.8 13.8 53.33 53.33 0 0 1 2.9 5.88 34.35 34.35 0 0 1 2.8 12.04zM572.9 108.63l-2.57 16.13h-11l11.93-70.18h14.54l11.76 70.18h-11.12L584 108.63zm5.56-38l-3.92 27.67h7.84zM635.32 124.76h-28.85V54.58h10.6v59.65h18.25zM671.44 124.76H642.6V54.58h10.6v59.65h18.25zM1080.94 431.12h10.48v10.48h-10.48zM1115.25 442.43a16.56 16.56 0 0 1-16.63-16.58v-37.9a16.6 16.6 0 1 1 33.2 0v7.9H1121v-8.14a6.06 6.06 0 0 0-6-6 5.73 5.73 0 0 0-4.24 1.78 5.87 5.87 0 0 0-1.74 4.27v38a6 6 0 0 0 6 6 5.86 5.86 0 0 0 4.27-1.74 5.74 5.74 0 0 0 1.77-4.23v-9.6h10.86v9.7a16.56 16.56 0 0 1-16.58 16.6zM1156.83 371.2a16.6 16.6 0 0 1 16.63 16.62v37.92a16.6 16.6 0 1 1-33.2 0v-37.92a16.6 16.6 0 0 1 16.56-16.63zm5.7 16.4a6 6 0 0 0-6-6 5.86 5.86 0 0 0-4.26 1.74 5.73 5.73 0 0 0-1.78 4.24v38a5.73 5.73 0 0 0 1.77 4.24 5.87 5.87 0 0 0 4.27 1.74 6 6 0 0 0 6-6zM1193.14 441.54h-10.48V372h15l9.77 49.94 9.37-49.94h14.44v69.52h-10.44v-43.66l-9.1 43.7h-8.42L1193.14 398z" class="dfa28a5b-8911-4e1b-a1d7-097094ce7e3c"/><path d="M559.3 292.16v-138.5h59.44v21H580.2v37.77h28.16v21H580.2v37.78h38.54v21zM698.7 259a32.1 32.1 0 0 1-9.6 23.42 31.43 31.43 0 0 1-23.2 9.72h-32.8v-138.5h32.8a31.38 31.38 0 0 1 23.24 9.73 32.07 32.07 0 0 1 9.55 23.3zM654 271.5h12.6a11.14 11.14 0 0 0 8.38-3.58 11.84 11.84 0 0 0 3.43-8.45V187a11.7 11.7 0 0 0-3.47-8.5 11.28 11.28 0 0 0-8.34-3.54H654zM749.95 293.7a32.8 32.8 0 0 1-33-32.9v-107h20.43v106.77a11.4 11.4 0 0 0 3.53 8.45 11.7 11.7 0 0 0 8.5 3.48 11.88 11.88 0 0 0 11.94-11.93v-106.8h21.76v107a31.47 31.47 0 0 1-9.72 23.4 32.3 32.3 0 0 1-23.43 9.54zM834.44 293.93a33 33 0 0 1-33.14-33v-75.58a33.08 33.08 0 1 1 66.16 0v15.8h-21.64V184.9a12.07 12.07 0 0 0-12-12 11.42 11.42 0 0 0-8.45 3.54 11.68 11.68 0 0 0-3.48 8.5v75.77a11.87 11.87 0 0 0 11.92 11.94 11.68 11.68 0 0 0 8.5-3.48 11.4 11.4 0 0 0 3.54-8.45v-19.13h21.65v19.33a33 33 0 0 1-33 33zM906.2 260.35l-5.06 31.8H879.4l23.53-138.4h28.72l23.2 138.4h-21.96l-4.9-31.8zm11-74.9L909.45 240h15.47zM975 174.75h-22.2v-21h65.2v21h-22.07v117.4H975zM1055.68 292.16h-20.88v-138.4h20.88zM1107.15 152a33.1 33.1 0 0 1 33.14 33.14v75.55a33.08 33.08 0 1 1-66.17 0v-75.57a33.1 33.1 0 0 1 33-33.14zm11.38 32.7a11.88 11.88 0 0 0-11.93-11.94 11.68 11.68 0 0 0-8.5 3.48 11.4 11.4 0 0 0-3.53 8.45v75.76a11.4 11.4 0 0 0 3.53 8.45 11.68 11.68 0 0 0 8.5 3.5 11.88 11.88 0 0 0 11.93-11.94zM1182.06 153.65l27.7 93.1v-93.1h20.87v138.5h-22.42l-28.7-88.68v88.7h-20.9V153.64z" class="19cfeff9-a8f3-4ba9-a022-0a978a81f76e"/><path d="M263.9 337.1c20.7-55.77 11.1-104.52-.23-135.1-77.45-91.66-218.17-42.33-218.17-42.33L49 391.8c117.4-44.7 188.85 9.9 218 41.23-9.27-31.68-13.9-66.94-3.1-95.94zm-17.3-50.72s-3.35-45-57.1-61.6c0 0-31.27-5.46-48.7-16.57 0 0 15.12 14.24 57.74 27.1S239 301.58 239 301.58s-42.2 30-92.16-40.54c0 0-24.77-37.23-31.28-84.6 0 0 5.67 20.86 51 21.64s69.27 22.6 69.27 22.6 31.35 27.7 10.78 65.7z" class="dfa28a5b-8911-4e1b-a1d7-097094ce7e3c"/><path d="M292.2 205.17a189.93 189.93 0 0 1 9.58 38.22 60.35 60.35 0 0 1 8.57-8.95s28.52-23.3 81.4-22.8 60.1-22.26 60.1-22.26C442.9 241.32 413 281.54 413 281.54c-60.26 76.15-108.6 41.84-108.6 41.84s-.9-58.85 49.13-71.72 68.07-28.07 68.07-28.07c-20.63 11.7-57.25 16.77-57.25 16.77-40.67 10.7-57.28 35-64 51a123.76 123.76 0 0 1-6.3 20.63c-16.38 40.5-11.92 83.4-1.54 119.9 29.93-31.48 101.3-84.3 217.3-40.14l3.33-232.13s-144.05-50.4-220.93 45.54zM289.23 182.3s29.46-34.22 3.18-83.94c0 0-18.25-26-22.7-46.15 0 0 .62 20.76 21.65 60s-18.2 75.52-18.2 75.52-51.07-8.6-36.5-93.83c0 0 8.8-43.85 37.7-81.95 0 0-10.75 18.76 20.76 51.37s33 65 33 65 2.55 41.68-38.87 53.97z" class="19cfeff9-a8f3-4ba9-a022-0a978a81f76e"/><path d="M347.8 396.52c-30.3 15.53-48.36 35.92-53.33 42l.07.24c29.88-17.3 97.18-40.5 209.14 2.12l.4-44.92C433 371 380.14 380 347.82 396.52z" class="dfa28a5b-8911-4e1b-a1d7-097094ce7e3c"/></svg>